<svg xmlns="http://www.w3.org/2000/svg" viewBox="0 0 800 600" width="800" height="600">
  <defs>
    <linearGradient id="bg" x1="0%" y1="0%" x2="100%" y2="100%">
      <stop offset="0%" style="stop-color:#1e3a5f"/>
      <stop offset="100%" style="stop-color:#0f172a"/>
    </linearGradient>
    <filter id="shadow" x="-20%" y="-20%" width="140%" height="140%">
      <feDropShadow dx="0" dy="2" stdDeviation="3" flood-opacity="0.3"/>
    </filter>
  </defs>

  <!-- 0Į -->
  <rect width="800" height="600" rx="16" fill="url(#bg)"/>

  <!-- Y ź▌ (└l° Éī) -->
  <circle cx="400" cy="300" r="120" fill="#1d4ed8" opacity="0.3"/>
  <circle cx="400" cy="300" r="90" fill="#2563eb" opacity="0.4"/>
  <text x="400" y="295" text-anchor="middle" fill="white" font-size="28" font-weight="bold" font-family="sans-serif">8─ņē</text>
  <text x="400" y="325" text-anchor="middle" fill="#93c5fd" font-size="16" font-family="sans-serif">WORLD MARBLE</text>

  <!-- @ ╔┴ Ė -->
  <!-- XĶ ē -->
  <rect x="628" y="518" width="88" height="68" rx="6" fill="#ef4444" filter="url(#shadow)"/>
  <rect x="538" y="518" width="88" height="68" rx="6" fill="#f97316" filter="url(#shadow)"/>
  <rect x="448" y="518" width="88" height="68" rx="6" fill="#eab308" filter="url(#shadow)"/>
  <rect x="358" y="518" width="88" height="68" rx="6" fill="#22c55e" filter="url(#shadow)"/>
  <rect x="268" y="518" width="88" height="68" rx="6" fill="#14b8a6" filter="url(#shadow)"/>
  <rect x="178" y="518" width="88" height="68" rx="6" fill="#3b82f6" filter="url(#shadow)"/>
  <rect x="88" y="518" width="88" height="68" rx="6" fill="#6366f1" filter="url(#shadow)"/>
  <rect x="28" y="518" width="88" height="68" rx="6" fill="#8b5cf6" filter="url(#shadow)"/>

  <!-- ī! ¶ -->
  <rect x="28" y="428" width="88" height="88" rx="6" fill="#ec4899" filter="url(#shadow)"/>
  <rect x="28" y="338" width="88" height="88" rx="6" fill="#f43f5e" filter="url(#shadow)"/>
  <rect x="28" y="248" width="88" height="88" rx="6" fill="#fb923c" filter="url(#shadow)"/>
  <rect x="28" y="158" width="88" height="88" rx="6" fill="#facc15" filter="url(#shadow)"/>

  <!-- ┴Ķ ē -->
  <rect x="88" y="14" width="88" height="68" rx="6" fill="#a3e635" filter="url(#shadow)"/>
  <rect x="178" y="14" width="88" height="68" rx="6" fill="#4ade80" filter="url(#shadow)"/>
  <rect x="268" y="14" width="88" height="68" rx="6" fill="#2dd4bf" filter="url(#shadow)"/>
  <rect x="358" y="14" width="88" height="68" rx="6" fill="#38bdf8" filter="url(#shadow)"/>
  <rect x="448" y="14" width="88" height="68" rx="6" fill="#818cf8" filter="url(#shadow)"/>
  <rect x="538" y="14" width="88" height="68" rx="6" fill="#c084fc" filter="url(#shadow)"/>
  <rect x="628" y="14" width="88" height="68" rx="6" fill="#e879f9" filter="url(#shadow)"/>
  <rect x="684" y="14" width="88" height="68" rx="6" fill="#f472b6" filter="url(#shadow)"/>

  <!-- ░! ¶ -->
  <rect x="684" y="158" width="88" height="88" rx="6" fill="#34d399" filter="url(#shadow)"/>
  <rect x="684" y="248" width="88" height="88" rx="6" fill="#60a5fa" filter="url(#shadow)"/>
  <rect x="684" y="338" width="88" height="88" rx="6" fill="#a78bfa" filter="url(#shadow)"/>
  <rect x="684" y="428" width="88" height="88" rx="6" fill="#f87171" filter="url(#shadow)"/>

  <!-- @ |© -->
  <text x="672" y="558" text-anchor="middle" fill="white" font-size="18" font-weight="bold" font-family="sans-serif">▄æ</text>
  <text x="582" y="558" text-anchor="middle" fill="white" font-size="16" font-family="sans-serif">2</text>
  <text x="492" y="558" text-anchor="middle" fill="white" font-size="16" font-family="sans-serif">3</text>
  <text x="402" y="558" text-anchor="middle" fill="white" font-size="16" font-family="sans-serif">4</text>
  <text x="312" y="558" text-anchor="middle" fill="white" font-size="16" font-family="sans-serif">5</text>
  <text x="222" y="558" text-anchor="middle" fill="white" font-size="16" font-family="sans-serif">6</text>
  <text x="132" y="558" text-anchor="middle" fill="white" font-size="16" font-family="sans-serif">7</text>
  <text x="72" y="558" text-anchor="middle" fill="white" font-size="16" font-family="sans-serif">8</text>

  <text x="72" y="478" text-anchor="middle" fill="white" font-size="16" font-family="sans-serif">9</text>
  <text x="72" y="388" text-anchor="middle" fill="white" font-size="16" font-family="sans-serif">10</text>
  <text x="72" y="298" text-anchor="middle" fill="white" font-size="16" font-family="sans-serif">11</text>
  <text x="72" y="208" text-anchor="middle" fill="white" font-size="16" font-family="sans-serif">12</text>

  <text x="132" y="54" text-anchor="middle" fill="white" font-size="16" font-family="sans-serif">13</text>
  <text x="222" y="54" text-anchor="middle" fill="white" font-size="16" font-family="sans-serif">14</text>
  <text x="312" y="54" text-anchor="middle" fill="white" font-size="16" font-family="sans-serif">15</text>
  <text x="402" y="54" text-anchor="middle" fill="white" font-size="16" font-family="sans-serif">16</text>
  <text x="492" y="54" text-anchor="middle" fill="white" font-size="16" font-family="sans-serif">17</text>
  <text x="582" y="54" text-anchor="middle" fill="white" font-size="16" font-family="sans-serif">18</text>
  <text x="672" y="54" text-anchor="middle" fill="white" font-size="16" font-family="sans-serif">19</text>
  <text x="728" y="54" text-anchor="middle" fill="white" font-size="16" font-family="sans-serif">20</text>

  <text x="728" y="208" text-anchor="middle" fill="white" font-size="16" font-family="sans-serif">21</text>
  <text x="728" y="298" text-anchor="middle" fill="white" font-size="16" font-family="sans-serif">22</text>
  <text x="728" y="388" text-anchor="middle" fill="white" font-size="16" font-family="sans-serif">23</text>
  <text x="728" y="478" text-anchor="middle" fill="white" font-size="16" font-family="sans-serif">24</text>

  <!-- ▄æ x h T┤\ (▄─ )ź) -->
  <polygon points="708,500 708,530 688,515" fill="#dc2626"/>
  <text x="708" y="498" text-anchor="middle" fill="#fca5a5" font-size="11" font-family="sans-serif">║</text>
</svg>
